<svg data-v-fde0c5aa="" xmlns="http://www.w3.org/2000/svg" viewBox="0 0 300 300" class="iconLeft"><!----><defs data-v-fde0c5aa=""><!----></defs><rect data-v-fde0c5aa="" fill="transparent" x="0" y="0" width="300px" height="300px" class="logo-background-square"></rect><defs data-v-fde0c5aa=""><!----></defs><g data-v-fde0c5aa="" id="0d8ae34d-80c0-4857-8fdf-781e9af62db4" fill="#000000" transform="matrix(3.919285326641754,0,0,3.919285326641754,116.63253440698084,122.99612368828893)"><path d="M5.33 10.25L5.33 10.25Q5.38 10.35 5.38 10.43L5.38 10.43Q5.38 10.58 5.24 10.72Q5.10 10.85 4.96 10.98L4.96 10.98Q3.22 10.85 0.97 10.22L0.97 10.22Q0.49 10.08 0.31 10.00L0.31 10.00Q-0.03 9.84-0.18 9.56L-0.18 9.56Q-0.17 9.45-0.18 9.28L-0.18 9.28Q1.41 7.46 1.79 7L1.79 7Q2.87 5.67 3.50 4.52L3.50 4.52Q3.09 4.30 2.59 4.30L2.59 4.30Q2.30 4.30 1.73 4.39Q1.16 4.48 0.88 4.48L0.88 4.48Q0.52 4.48 0.22 4.38L0.22 4.38Q-0.18 4.14-0.18 3.88L-0.18 3.88Q-0.18 3.78-0.11 3.70L-0.11 3.70Q0.29 3.37 1.06 3.37L1.06 3.37Q1.15 3.37 1.32 3.37Q1.48 3.37 1.57 3.37L1.57 3.37Q1.97 3.37 2.24 3.30L2.24 3.30Q2.80 3.35 3.37 3.40L3.37 3.40Q4.05 3.49 4.42 3.74Q4.79 3.99 4.79 4.37L4.79 4.37Q4.79 4.48 4.75 4.59L4.75 4.59Q4.30 5.70 3.29 6.97L3.29 6.97Q2.37 8.06 1.44 9.14L1.44 9.14Q3.53 9.76 5.03 9.94L5.03 9.94Q5.18 9.94 5.33 10.25ZM10.11 3.63L10.11 3.63Q9.59 3.84 8.58 4.12Q7.57 4.40 7.06 4.61L7.06 4.61Q6.93 4.97 6.87 6.23L6.87 6.23Q7.10 6.31 7.39 6.31L7.39 6.31Q7.60 6.31 8.05 6.24Q8.50 6.17 8.71 6.17L8.71 6.17Q9.10 6.17 9.38 6.34L9.38 6.34Q9.58 6.62 9.58 6.71L9.58 6.71Q9.58 6.80 9.48 6.86L9.48 6.86Q9.45 6.87 9.28 7.06L9.28 7.06Q9.17 7.18 9.00 7.17L9.00 7.17Q8.71 7.24 7.92 7.25L7.92 7.25Q7.27 7.27 6.87 7.42L6.87 7.42Q6.61 8.46 6.61 9.06L6.61 9.06Q6.61 9.46 6.72 9.70L6.72 9.70Q7.38 10.16 9.00 10.09L9.00 10.09Q9.11 10.09 9.24 9.99Q9.37 9.88 9.45 9.88L9.45 9.88Q9.84 9.80 9.97 10.47L9.97 10.47Q10.01 10.70 9.89 10.88Q9.77 11.07 9.55 11.09L9.55 11.09Q7.85 11.14 6.61 10.82L6.61 10.82Q6.22 10.72 5.89 10.39Q5.57 10.05 5.53 9.63L5.53 9.63Q5.40 8.41 5.53 7.45L5.53 7.45Q5.14 7.18 5.18 6.93L5.18 6.93Q5.19 6.80 5.40 6.70Q5.60 6.59 5.63 6.48Q5.66 6.37 5.74 5.15L5.74 5.15Q4.96 5.00 4.97 4.56L4.97 4.56Q4.98 4.16 5.46 3.92L5.46 3.92Q5.91 3.74 6.36 3.56L6.36 3.56Q6.89 3.29 7.67 3.08L7.67 3.08Q8.34 2.90 9.03 2.73L9.03 2.73Q9.10 2.72 9.20 2.72L9.20 2.72Q9.58 2.72 10.08 3.01L10.08 3.01Q10.09 3.07 10.15 3.22Q10.21 3.37 10.21 3.44L10.21 3.44Q10.21 3.56 10.11 3.63ZM15.23 3.63L15.23 3.63Q14.71 3.84 13.71 4.12Q12.70 4.40 12.18 4.61L12.18 4.61Q12.05 4.97 12.00 6.23L12.00 6.23Q12.22 6.31 12.52 6.31L12.52 6.31Q12.73 6.31 13.17 6.24Q13.62 6.17 13.83 6.17L13.83 6.17Q14.22 6.17 14.50 6.34L14.50 6.34Q14.70 6.62 14.70 6.71L14.70 6.71Q14.70 6.80 14.60 6.86L14.60 6.86Q14.57 6.87 14.41 7.06L14.41 7.06Q14.29 7.18 14.13 7.17L14.13 7.17Q13.83 7.24 13.05 7.25L13.05 7.25Q12.39 7.27 12.00 7.42L12.00 7.42Q11.73 8.46 11.73 9.06L11.73 9.06Q11.73 9.46 11.84 9.70L11.84 9.70Q12.50 10.16 14.13 10.09L14.13 10.09Q14.24 10.09 14.36 9.99Q14.49 9.88 14.57 9.88L14.57 9.88Q14.97 9.80 15.09 10.47L15.09 10.47Q15.13 10.70 15.02 10.88Q14.90 11.07 14.67 11.09L14.67 11.09Q12.98 11.14 11.73 10.82L11.73 10.82Q11.34 10.72 11.02 10.39Q10.70 10.05 10.65 9.63L10.65 9.63Q10.53 8.41 10.65 7.45L10.65 7.45Q10.26 7.18 10.30 6.93L10.30 6.93Q10.32 6.80 10.52 6.70Q10.72 6.59 10.75 6.48Q10.78 6.37 10.86 5.15L10.86 5.15Q10.08 5.00 10.09 4.56L10.09 4.56Q10.11 4.16 10.58 3.92L10.58 3.92Q11.03 3.74 11.48 3.56L11.48 3.56Q12.01 3.29 12.80 3.08L12.80 3.08Q13.47 2.90 14.15 2.73L14.15 2.73Q14.22 2.72 14.32 2.72L14.32 2.72Q14.70 2.72 15.20 3.01L15.20 3.01Q15.22 3.07 15.27 3.22Q15.33 3.37 15.33 3.44L15.33 3.44Q15.33 3.56 15.23 3.63ZM18.52 2.16L18.52 2.16Q18.52 2.44 18.12 2.65L18.12 2.65Q18.00 2.70 17.88 2.66L17.88 2.66Q17.68 2.60 17.67 2.60L17.67 2.60Q17.58 2.60 17.50 2.69L17.50 2.69Q16.74 3.44 16.74 4.54L16.74 4.54Q16.74 4.94 16.87 5.29L16.87 5.29Q16.93 5.45 17.93 7.46L17.93 7.46Q18.61 8.81 18.61 9.74L18.61 9.74Q18.61 10.51 18.23 11.23L18.23 11.23Q18.10 11.47 17.60 11.84L17.60 11.84Q17.19 12.14 16.87 12.14L16.87 12.14Q16.74 12.14 16.63 12.10L16.63 12.10Q16.21 11.91 16.21 11.63L16.21 11.63Q16.21 11.47 16.42 11.23L16.42 11.23Q16.48 11.16 16.69 11.14Q16.90 11.13 16.97 10.98L16.97 10.98Q17.26 10.36 17.26 9.72L17.26 9.72Q17.26 8.81 16.36 7.08Q15.46 5.35 15.46 4.31L15.46 4.31Q15.46 3.46 15.79 2.79L15.79 2.79Q16.17 2.02 16.87 1.68L16.87 1.68Q17.19 1.53 17.50 1.53L17.50 1.53Q18.09 1.53 18.38 1.85L18.38 1.85Q18.52 2.00 18.52 2.16ZM24.21 2.80L24.21 2.80Q24.18 4.05 23.80 6.75L23.80 6.75Q23.45 9.31 23.45 10.68L23.45 10.68Q23.45 11.12 23.48 11.51L23.48 11.51Q23.48 11.61 23.39 11.70Q23.31 11.79 23.20 11.79L23.20 11.79Q22.81 11.79 22.68 11.72L22.68 11.72Q22.15 11.41 22.15 10.56L22.15 10.56Q22.15 10.39 22.17 10.03Q22.19 9.67 22.19 9.51L22.19 9.51Q22.19 9.23 22.26 8.65Q22.33 8.08 22.33 7.77L22.33 7.77Q22.13 7.78 21.79 7.71Q21.45 7.64 21.29 7.64L21.29 7.64Q21.11 7.64 20.94 7.70L20.94 7.70Q20.61 8.81 20.55 10.96L20.55 10.96Q20.08 11.16 19.63 10.92L19.63 10.92Q19.31 10.75 19.31 10.25L19.31 10.25Q19.31 10.14 19.33 9.95Q19.35 9.76 19.35 9.72L19.35 9.72Q19.39 8.96 19.67 6.72L19.67 6.72Q19.91 4.84 19.89 3.74L19.89 3.74Q19.89 3.58 20.11 3.54Q20.33 3.50 20.36 3.46L20.36 3.46Q20.44 3.56 20.76 3.63L20.76 3.63Q21.03 3.68 21.08 3.88L21.08 3.88Q21.20 4.23 21.20 4.66L21.20 4.66Q21.20 4.97 21.11 5.63Q21.01 6.30 21.01 6.65L21.01 6.65Q21.18 6.78 21.43 6.80L21.43 6.80Q21.60 6.83 21.91 6.82L21.91 6.82Q22.32 6.79 22.40 6.79L22.40 6.79Q22.75 5.32 23.02 2.98L23.02 2.98Q23.07 2.49 23.37 2.49L23.37 2.49Q24.11 2.42 24.21 2.80ZM30.14 9.95L30.14 9.95Q30.23 10.18 30.23 10.35L30.23 10.35Q30.23 10.63 29.99 10.84Q29.75 11.05 29.67 11.03L29.67 11.03Q28.98 10.91 28.80 9.93L28.80 9.93Q28.60 8.86 28.34 8.15L28.34 8.15Q27.86 8.19 27.38 8.23L27.38 8.23Q26.84 8.30 26.53 8.57L26.53 8.57Q26.38 9.00 26.12 10.11L26.12 10.11Q25.89 11.13 25.66 11.66L25.66 11.66Q25.55 11.91 25.19 11.80L25.19 11.80Q24.72 11.65 24.70 11.38L24.70 11.38Q24.65 10.85 25.00 9.95L25.00 9.95Q25.42 8.93 25.47 8.50L25.47 8.50Q25.48 8.37 25.28 8.22Q25.09 8.06 25.09 7.98L25.09 7.98Q25.09 7.91 25.15 7.83Q25.21 7.76 25.45 7.71Q25.68 7.66 25.70 7.56L25.70 7.56Q25.96 6.86 26.50 4.96L26.50 4.96Q26.96 3.30 27.33 2.42L27.33 2.42Q27.41 2.23 27.68 2.23L27.68 2.23Q27.87 2.23 28.03 2.35L28.03 2.35Q28.42 2.69 28.53 3.36L28.53 3.36Q28.62 3.93 28.69 4.51L28.69 4.51Q29.39 7.81 30.14 9.95ZM28.10 7.28L28.10 7.28Q28.06 6.76 27.92 6.12L27.92 6.12Q27.78 5.56 27.65 5.00L27.65 5.00Q27.23 6.16 26.92 7.32L26.92 7.32Q27.15 7.28 28.10 7.28ZM36.58 2.14L36.58 2.14Q36.39 4.02 36.20 5.91L36.20 5.91Q35.97 8.15 35.97 9.65L35.97 9.65Q35.97 10.14 35.99 10.61L35.99 10.61Q36.01 10.84 35.83 11.00Q35.66 11.17 35.43 11.17L35.43 11.17Q35 11.17 34.71 10.58L34.71 10.58Q33.81 8.83 32.48 5.10L32.48 5.10Q32.45 5.01 32.41 5.01L32.41 5.01Q32.31 5.01 32.28 5.21L32.28 5.21Q32.05 7.21 32.05 9.42L32.05 9.42Q32.05 10.49 32.10 11.59L32.10 11.59Q32.12 12.00 31.86 12.15L31.86 12.15Q31.77 12.25 31.65 12.25L31.65 12.25Q31.56 12.25 31.40 12.17L31.40 12.17Q31.19 12.07 31.14 12.04L31.14 12.04Q30.95 11.98 30.91 11.70L30.91 11.70Q30.90 11.48 30.88 11.24L30.88 11.24Q30.84 10.46 30.84 9.60L30.84 9.60Q30.84 8.12 31.01 5.89L31.01 5.89Q31.28 2.51 31.30 2.14L31.30 2.14Q31.32 1.83 31.82 1.83L31.82 1.83Q32.06 1.81 32.52 2.18L32.52 2.18Q32.97 3.04 33.63 4.96L33.63 4.96Q34.26 6.79 34.78 7.74L34.78 7.74Q34.99 5.88 35.43 2.11L35.43 2.11Q35.48 1.83 35.84 1.83L35.84 1.83Q35.97 1.83 36.13 1.88L36.13 1.88Q36.36 1.93 36.40 1.95L36.40 1.95Q36.54 2.00 36.58 2.14Z"></path></g><defs data-v-fde0c5aa=""><linearGradient data-v-fde0c5aa="" gradientTransform="rotate(25)" id="d5dd41e2-d8c3-42f8-9f67-dae594de0298" x1="0%" y1="0%" x2="100%" y2="0%"><stop data-v-fde0c5aa="" offset="0%" stop-color="#288B58" stop-opacity="1"></stop><stop data-v-fde0c5aa="" offset="100%" stop-color="#1522F1" stop-opacity="1"></stop></linearGradient></defs><g data-v-fde0c5aa="" id="2ff8285f-e308-464b-856a-43b5b26022d7" stroke="none" fill="url(#d5dd41e2-d8c3-42f8-9f67-dae594de0298)" transform="matrix(0.9636407974287978,0,0,0.9636407974287978,40.19272705668639,118.68167335123637)"><path d="M58 49.8l-1.1 1.1 2.4 2.3-2.4 2.4 1.1 1.1 3.5-3.5zM48.3 49.8l-3.4 3.4 3.4 3.5 1.1-1.1-2.4-2.4 2.4-2.3zM50.99 59.334l-1.345-.665 5.678-11.471 1.344.665z"></path><path d="M53.2 41.2c-.9 0-1.7.1-2.6.3-1.9-1.9-4.2-3.2-6.8-4 .5-2.3.3-4.1-.9-5.4-1.5-1.7-4-2-5.7-1.9 1.9-2.1 3.3-4.8 3.4-7.9.9-.8 3.4-3 3.3-5.4-.1-2.4-1.7-2.5-2.1-2.5h-.1l.4-3.6c.2-4.3-1.7-5.9-3.1-6.5 1.4-2 1-3.3 1-3.4l-.3-.9-.8.6c-.9.6-1.8.9-2.7.9-.6 0-1-.2-1-.2C32.5.1 26.8-.2 26.5-.2c-5.9 0-7.7 3-8.1 4.2-5 .6-4.8 5.6-4.7 8v1.1c0 .5 0 1 .1 1.5-.7 0-2 .4-2 2.5-.1 2.4 2.4 4.7 3.3 5.4.1 2.9 1.4 5.5 3.2 7.6-1.7 0-4.4.2-5.9 1.9-1.1 1.3-1.4 3.1-.8 5.5-7 2.3-11.8 9-11.8 16.4v3.2h42c1.6 4.7 6.1 8.1 11.3 8.1 6.6 0 12-5.4 12-12 .1-6.6-5.3-12-11.9-12zm-11.4-8.1c.9 1 1 2.6.3 4.8-.1.2-2.1 4.5-8.1 6.1-.4-1.1-1.2-2-2.3-2.5.9-.5 1.6-1.1 2.2-1.8 2.3-2.7 2.4-6.4 2.4-7.9 1.4-.2 4.2-.2 5.5 1.3zm-8.2 15.3c.7 0 1.2.6 1.2 1.2 0 .7-.6 1.2-1.2 1.2-.7 0-1.3-.6-1.3-1.2.1-.6.6-1.2 1.3-1.2zM27.4 41c-2.1-.2-3.8-1-4.9-2.3-1.7-2-2-4.9-2.1-6.4 2.3 1.8 4.9 2.9 7.4 2.9 2.1 0 4.8-1 7.1-2.8 0 1.6-.4 4.4-2.1 6.4-1.1 1.2-2.8 2-4.9 2.2h-.5zM19 5.4h.6l.1-.6s.7-3.6 6.8-3.6c.1 0 5.6.3 8.1 1.4.1 0 .7.3 1.6.3.7 0 1.4-.1 2-.4-.2.4-.6.9-1.1 1.5L36 5.2l1.6.1c.1 0 3.3.3 3 5.3l-.4 3.6-1.7.7c-.4-.5-1-.7-1.3-.8-.8-.1-1.6-.1-2.6-.1-1.7 0-3.3.2-3.4.2-1.3.2-2.2.6-2.6 1.4 0 .1 0 .1-.1.2h-1.3c0-.1 0-.1-.1-.2-.4-.8-1.3-1.3-2.6-1.4-.1 0-1.7-.2-3.4-.2-1 0-1.9.1-2.5.2-.3.1-.9.3-1.3.8l-2-.8c0-.4-.1-.7-.1-1V12c-.2-3.4 0-6.4 3.8-6.6zm18.5 11.9l-.1.7c-.3 1.8-.4 2.1-1.3 2.3 0 0-1 .2-2.2.2-1.3 0-2.2-.3-2.7-.7-.2-.3-.8-1.4-1.3-2.7 0 0-.2-.5 0-.8.2-.3.7-.5 1.4-.6 0 0 1.6-.2 3.3-.2.9 0 1.7.1 2.2.2.1-.1 1 .1.7 1.6zm-11.8-.1c-.5 1.3-1.1 2.4-1.3 2.6-.5.5-1.4.7-2.7.7-1.1 0-2.1-.2-2.1-.2-.9-.3-1-.6-1.3-2.4l-.1-.7c-.2-1.4.5-1.6.7-1.7.5-.1 1.3-.2 2.2-.2 1.6 0 3.2.2 3.2.2.8.1 1.3.3 1.4.6.3.5.1 1 0 1.1zm-9.1 4.6l-.3-.2c-.9-.7-3.1-2.7-3-4.4 0-1.1.4-1.1.7-1.1.4 0 .8-.2 1-.4l1.7.7c-.1.4-.1.8 0 1.3l.1.7c.3 1.8.5 3 2.4 3.6 0 0 1.2.2 2.5.2 1.8 0 3.1-.4 3.9-1.3l.1-.1c0-.1.9-1.4 1.5-2.9l.2-.6h1.1c.1.3.2.5.2.5.6 1.6 1.5 2.9 1.5 3l.1.1c.8.8 2.1 1.3 3.9 1.3 1.3 0 2.4-.2 2.5-.3 1.9-.6 2.1-1.7 2.4-3.5l.1-.7c.1-.5.1-.9 0-1.3l1.6-.6c.2.1.4.2.6.2h.6c.2 0 .6 0 .6 1.1 0 1.7-2.2 3.8-3 4.4l-.3.2v.4c0 3.3-1.8 6.4-4.2 8.5-2.2 1.9-4.9 3.1-7 3.1-5 0-11.1-5.1-11.2-11.4l-.3-.5zm-3 11.3c1.3-1.5 4.1-1.5 5.4-1.4 0 1.6.1 5.3 2.4 7.9.7.9 1.6 1.5 2.7 2-.9.6-1.6 1.5-2 2.5-6.6-1.5-8.8-6.1-8.8-6.2-.7-2.2-.6-3.8.3-4.8zm9 17.1c.7 0 1.3.6 1.3 1.2 0 .7-.6 1.2-1.3 1.2-.7 0-1.3-.6-1.3-1.2.1-.7.6-1.2 1.3-1.2zM1.3 55.7V54c0-6.8 4.4-12.8 10.8-15 .8 1.4 3.5 5.3 9.7 6.7v3.1c-1.2.3-2 1.4-2 2.6 0 1.5 1.2 2.7 2.8 2.7s2.8-1.2 2.8-2.7c0-1.3-.8-2.3-2-2.6v-3.3c0-1.7 1.3-3 3-3H30c1.7 0 3 1.3 3 3V47c-1.2.3-2 1.4-2 2.6 0 1.5 1.2 2.7 2.7 2.7 1.5 0 2.7-1.2 2.7-2.7 0-1.3-.8-2.3-2-2.6v-1.5c5.7-1.5 8.2-5.2 8.9-6.6 2.1.6 4 1.7 5.6 3.1-4.5 1.7-7.8 6.1-7.8 11.2 0 .8.1 1.7.3 2.4H1.3zm51.9 8c-5.8 0-10.5-4.7-10.5-10.5s4.7-10.5 10.5-10.5 10.5 4.7 10.5 10.5S59 63.7 53.2 63.7z"></path></g><!----></svg>